<?xml version="1.0" encoding="UTF-8"?>
<svg id="Ebene_1" data-name="Ebene 1" xmlns="http://www.w3.org/2000/svg" viewBox="0 0 194.87 187.04">
  <defs>
    <style>
      .cls-1, .cls-2 {
        fill: none;
      }

      .cls-2 {
        stroke: #3c3c3b;
        stroke-miterlimit: 10;
        stroke-width: 14px;
      }

      .cls-3 {
        fill: #3c3c3b;
      }
    </style>
  </defs>
  <g>
    <line class="cls-2" x1="0" y1="7" x2="82.29" y2="7"/>
    <line class="cls-2" y1="41.63" x2="82.29" y2="41.63"/>
    <line class="cls-2" y1="77.86" x2="82.29" y2="77.86"/>
  </g>
  <g>
    <line class="cls-2" x1="184.13" y1="0" x2="184.13" y2="84.65"/>
    <line class="cls-2" x1="149.5" y1="0" x2="149.5" y2="84.65"/>
    <line class="cls-2" x1="113.27" y1="0" x2="113.27" y2="84.65"/>
  </g>
  <g>
    <rect class="cls-1" x="3.51" y="98.99" width="191.36" height="29.92"/>
    <path class="cls-3" d="M23.61,120.04h-2.44v-4.64c-.87,2.99-3.39,4.99-7.02,4.99-5.63,0-9.66-4.26-9.66-10.7s4.21-10.7,10.3-10.7c4.79,0,8.56,2.7,8.64,6.79h-2.67c-.38-2.7-2.81-4.35-5.98-4.35-4.23,0-7.45,3.19-7.45,8.27s3.1,8.27,7.16,8.27c3.8,0,6.32-2.52,6.32-5.92v-.35h-6.12v-2.38h8.91v10.73Z"/>
    <path class="cls-3" d="M37.35,99.33l7.6,20.71h-3.07l-1.89-5.57h-9.05l-1.89,5.57h-2.9l7.6-20.71h3.6ZM39.24,112.15l-3.68-10.79h-.17l-3.68,10.79h7.54Z"/>
    <path class="cls-3" d="M50.98,99.33v18.33h10.65v2.38h-13.43v-20.71h2.78Z"/>
    <path class="cls-3" d="M67.94,99.33v18.33h10.65v2.38h-13.43v-20.71h2.79Z"/>
    <path class="cls-3" d="M95.27,99.33v2.38h-10.36v6.29h9.19v2.38h-9.19v7.28h10.94v2.38h-13.72v-20.71h13.14Z"/>
    <path class="cls-3" d="M108.43,99.33c4.23,0,7.14,2.09,7.14,5.71,0,2.93-2.06,5.02-5.37,5.48,2.23.38,3.45,1.42,4.47,3.77l2.49,5.74h-3.1l-2.18-5.16c-1.1-2.61-2.12-3.1-5.02-3.1h-4.29v8.27h-2.78v-20.71h8.64ZM102.57,101.71v7.69h5.57c2.67,0,4.58-1.39,4.58-3.86s-1.71-3.83-4.58-3.83h-5.57Z"/>
    <path class="cls-3" d="M127.95,112.04v8.01h-2.78v-8.04l-8.15-12.68h3.13l6.58,10.53,6.9-10.53h2.9l-8.59,12.71Z"/>
    <path class="cls-3" d="M156.54,99.33l7.6,20.71h-3.07l-1.89-5.57h-9.05l-1.89,5.57h-2.9l7.6-20.71h3.6ZM158.43,112.15l-3.68-10.79h-.17l-3.68,10.79h7.54Z"/>
    <path class="cls-3" d="M169.97,101.36h-.03c.06,3.28.06,6.53.06,9.8v8.88h-2.61v-20.71h4.7l6.21,18.65,6.24-18.65h4.84v20.71h-2.78v-8.88c0-3.28,0-6.53.06-9.8h-.06l-6.35,18.68h-3.89l-6.38-18.68Z"/>
  </g>
  <g>
    <path class="cls-3" d="M32.41,129.63v7.7H12.7v10.92h17.29v7.7H12.7v16.29H3.51v-42.61h28.9Z"/>
    <path class="cls-3" d="M47.4,129.63v34.91h20.74v7.7h-29.93v-42.61h9.19Z"/>
    <path class="cls-3" d="M80.24,129.63v23.33c0,8.41,3.57,12.17,9.98,12.17s9.68-3.76,9.68-12.17v-23.33h9.19v24.41c0,12-6.35,18.92-18.87,18.92s-19.17-6.86-19.17-18.92v-24.41h9.19Z"/>
    <path class="cls-3" d="M122.8,158.99c.36,4.6,3.81,6.8,10.16,6.8,5.93,0,8.95-1.97,8.95-5.13,0-3.46-3.14-5.01-10.52-6.33-10.46-1.85-15.48-5.37-15.48-13.25,0-6.86,5.44-12.17,16.45-12.17,10.34,0,16.69,3.88,16.69,12.95h-8.1c-.24-3.7-3.14-5.79-8.41-5.79-4.96,0-7.68,1.67-7.68,4.65,0,3.28,2.96,4.71,9.8,5.97,11.13,2.03,16.21,5.73,16.21,13.49s-6.23,12.77-17.72,12.77-18.44-4.83-18.44-13.96h8.1Z"/>
    <path class="cls-3" d="M162.95,158.99c.36,4.6,3.81,6.8,10.16,6.8,5.93,0,8.95-1.97,8.95-5.13,0-3.46-3.14-5.01-10.52-6.33-10.46-1.85-15.48-5.37-15.48-13.25,0-6.86,5.44-12.17,16.45-12.17,10.34,0,16.69,3.88,16.69,12.95h-8.1c-.24-3.7-3.14-5.79-8.41-5.79-4.96,0-7.68,1.67-7.68,4.65,0,3.28,2.96,4.71,9.8,5.97,11.13,2.03,16.21,5.73,16.21,13.49s-6.23,12.77-17.72,12.77-18.44-4.83-18.44-13.96h8.1Z"/>
  </g>
</svg>